<svg width="320" height="300" viewBox="0 0 320 300" fill="none" xmlns="http://www.w3.org/2000/svg">
  <!-- Slide 3 — Chat and call with recruiters -->
  <rect x="24" y="18" width="272" height="264" rx="36" fill="#EFF0F3"/>
  <circle cx="256" cy="66" r="26" fill="#C7FB00" opacity="0.3"/>

  <!-- Incoming bubble (recruiter) -->
  <path d="M78 74 h108 a20 20 0 0 1 20 20 v34 a20 20 0 0 1 -20 20 h-70 l-20 20 v-20 h-18 a20 20 0 0 1 -20 -20 v-34 a20 20 0 0 1 20 -20 z"
        fill="#FFFFFF" stroke="#0A0A0A" stroke-width="3"/>
  <rect x="80" y="98" width="90" height="9" rx="4.5" fill="#C9CBD3"/>
  <rect x="80" y="116" width="60" height="9" rx="4.5" fill="#E2E4EA"/>

  <!-- Reply bubble (you) -->
  <path d="M242 150 h-108 a20 20 0 0 0 -20 20 v34 a20 20 0 0 0 20 20 h70 l20 20 v-20 h18 a20 20 0 0 0 20 -20 v-34 a20 20 0 0 0 -20 -20 z"
        fill="#0A0A0A"/>
  <rect x="150" y="174" width="82" height="9" rx="4.5" fill="#C7FB00"/>
  <rect x="150" y="192" width="54" height="9" rx="4.5" fill="#54544F"/>

  <!-- Volt call badge -->
  <circle cx="252" cy="216" r="30" fill="#C7FB00" stroke="#0A0A0A" stroke-width="3"/>
  <path d="M243 206 c-2 2 -2 6 1 11 c3 5 7 9 12 11 c3 1 6 1 8 -1 l2 -2 c1 -1 1 -3 0 -4 l-5 -4 c-1 -1 -3 -1 -4 0 l-2 1 c-3 -1 -6 -4 -8 -8 l1 -2 c1 -1 1 -3 0 -4 l-4 -5 c-1 -1 -3 -1 -4 0 z"
        fill="#0A0A0A"/>
</svg>
